<svg width="64" height="64" viewBox="0 0 64 64" fill="none" xmlns="http://www.w3.org/2000/svg">
<path d="M52.11 58.32C52.11 61.376 49.821 63.851 46.994 63.851H14.379C11.555 63.851 9.26501 61.375 9.26501 58.32V8.44699C9.26501 5.38799 11.556 2.91299 14.379 2.91299H46.994C49.821 2.91299 52.11 5.38799 52.11 8.44699V58.32Z" fill="#F4AE7F"/>
<path d="M30.899 10.509C30.899 11.09 29.741 11.56 28.319 11.56H11.848C10.422 11.56 9.26602 11.09 9.26602 10.509V1.049C9.26602 0.47 10.421 0 11.848 0H28.319C29.741 0 30.899 0.47 30.899 1.049V10.509Z" fill="#F4AE7F"/>
<path d="M54.662 56C54.662 58.593 52.35 60.69 49.495 60.69H16.536C13.685 60.69 11.369 58.592 11.369 56V13.73C11.369 11.139 13.685 9.03999 16.536 9.03999H49.495C52.35 9.03999 54.662 11.14 54.662 13.73V56" fill="#D0D2D3"/>
<path d="M54.662 52.694C54.662 55.287 52.35 57.384 49.495 57.384H16.536C13.685 57.384 11.369 55.286 11.369 52.694V10.424C11.369 7.83299 13.685 5.73599 16.536 5.73599H49.495C52.35 5.73599 54.662 7.83399 54.662 10.424V52.694" fill="white"/>
<path d="M43.1 8.28C43.1 8.592 41.562 8.846 39.67 8.846H17.77C15.874 8.846 14.336 8.592 14.336 8.28V3.185C14.336 2.87 15.874 2.619 17.77 2.619H39.67C41.562 2.619 43.1 2.87 43.1 3.185V8.28Z" fill="#D0D2D3"/>
<path d="M20.07 18.03H48.632C50.554 18.03 50.554 15.33 48.632 15.33H20.07C18.155 15.33 18.155 18.03 20.07 18.03ZM20.07 23.515H48.632C50.554 23.515 50.554 20.817 48.632 20.817H20.07C18.155 20.817 18.155 23.515 20.07 23.515ZM20.07 29.12H48.632C50.554 29.12 50.554 26.42 48.632 26.42H20.07C18.155 26.42 18.155 29.12 20.07 29.12ZM20.07 34.6H48.632C50.554 34.6 50.554 31.902 48.632 31.902H20.07C18.155 31.902 18.155 34.6 20.07 34.6ZM20.07 45.18H33.218C35.134 45.18 35.134 42.481 33.218 42.481H20.07C18.155 42.48 18.155 45.18 20.07 45.18Z" fill="#35494D"/>
</svg>
